<?xml version="1.0" standalone="no"?><!DOCTYPE svg PUBLIC "-//W3C//DTD SVG 1.1//EN" "http://www.w3.org/Graphics/SVG/1.1/DTD/svg11.dtd"><svg class="icon" width="48px" height="48.00px" viewBox="0 0 1024 1024" version="1.1" xmlns="http://www.w3.org/2000/svg"><path d="M512 128a384 384 0 1 0 0 768A384 384 0 0 0 512 128M331.52 411.584L418.88 314.24a26.112 26.112 0 0 1 19.2-8.64 25.728 25.728 0 0 1 19.2 7.104 27.456 27.456 0 0 1 1.92 38.4l-46.656 51.84h257.088a27.072 27.072 0 0 1 26.496 27.264 26.688 26.688 0 0 1-26.496 26.88h-318.72a27.072 27.072 0 0 1-19.2-45.312m359.616 199.296l-87.552 97.344a25.92 25.92 0 0 1-19.2 8.448 25.344 25.344 0 0 1-19.2-7.296 27.456 27.456 0 0 1-1.152-38.4l46.464-51.84H353.024a27.264 27.264 0 0 1 0-54.336h318.912a27.264 27.264 0 0 1 19.2 45.504" /></svg>