<svg xmlns="http://www.w3.org/2000/svg" xmlns:xlink="http://www.w3.org/1999/xlink" fill="none" version="1.1" width="18" height="18" viewBox="0 0 18 18"><g><g><path d="M9,1.375L15,1.375Q15.6731,1.375,16.149,1.850952Q16.625,2.326903,16.625,3L16.625,8Q16.625,8.06156,16.613,8.121929999999999Q16.601,8.1823,16.5774,8.239180000000001Q16.5539,8.296050000000001,16.5197,8.34723Q16.485500000000002,8.39841,16.4419,8.441939999999999Q16.398400000000002,8.48547,16.3472,8.51967Q16.296,8.55387,16.2392,8.57742Q16.182299999999998,8.60098,16.1219,8.61299Q16.0616,8.625,16,8.625Q15.9384,8.625,15.8781,8.61299Q15.8177,8.60098,15.7608,8.57742Q15.704,8.55387,15.6528,8.51967Q15.6016,8.48547,15.5581,8.441939999999999Q15.5145,8.39841,15.4803,8.34723Q15.4461,8.296050000000001,15.4226,8.239180000000001Q15.399,8.1823,15.387,8.121929999999999Q15.375,8.06156,15.375,8L15.375,3Q15.375,2.625,15,2.625L9,2.625Q8.93844,2.625,8.878070000000001,2.612991Q8.817689999999999,2.600982,8.760819999999999,2.577425Q8.703949999999999,2.553868,8.65277,2.5196680000000002Q8.60158,2.485469,8.558060000000001,2.441942Q8.51453,2.398414,8.48033,2.347231Q8.44613,2.296048,8.42257,2.239177Q8.39902,2.182306,8.38701,2.121931Q8.375,2.0615571,8.375,2Q8.375,1.9384429,8.38701,1.878069Q8.39902,1.817694,8.42257,1.760823Q8.44613,1.7039520000000001,8.48033,1.652769Q8.51453,1.601586,8.558060000000001,1.558058Q8.60158,1.514531,8.65277,1.480332Q8.703949999999999,1.446132,8.760819999999999,1.4225750000000001Q8.817689999999999,1.3990179999999999,8.878070000000001,1.387009Q8.93844,1.375,9,1.375ZM1.375,8.88333Q1.375,8.82178,1.387009,8.7614Q1.3990179999999999,8.70103,1.4225750000000001,8.64416Q1.446132,8.58728,1.480332,8.536100000000001Q1.514531,8.484919999999999,1.558058,8.44139Q1.601586,8.39786,1.652769,8.36366Q1.7039520000000001,8.329460000000001,1.760823,8.30591Q1.817694,8.282350000000001,1.878069,8.270340000000001Q1.9384429,8.25833,2,8.25833Q2.0615571,8.25833,2.121931,8.270340000000001Q2.182306,8.282350000000001,2.239177,8.30591Q2.296048,8.329460000000001,2.347231,8.36366Q2.398414,8.39786,2.441942,8.44139Q2.485469,8.484919999999999,2.5196680000000002,8.536100000000001Q2.553868,8.58728,2.577425,8.64416Q2.600982,8.70103,2.612991,8.7614Q2.625,8.82178,2.625,8.88333L2.625,15Q2.625,15.375,3,15.375L5.5,15.375Q5.56156,15.375,5.62193,15.387Q5.68231,15.399,5.73918,15.4226Q5.79605,15.4461,5.84723,15.4803Q5.89841,15.5145,5.941940000000001,15.5581Q5.985469999999999,15.6016,6.01967,15.6528Q6.05387,15.704,6.07742,15.7608Q6.10098,15.8177,6.11299,15.8781Q6.125,15.9384,6.125,16Q6.125,16.0616,6.11299,16.1219Q6.10098,16.182299999999998,6.07742,16.2392Q6.05387,16.296,6.01967,16.3472Q5.985469999999999,16.398400000000002,5.941940000000001,16.4419Q5.89841,16.485500000000002,5.84723,16.5197Q5.79605,16.5539,5.73918,16.5774Q5.68231,16.601,5.62193,16.613Q5.56156,16.625,5.5,16.625L3,16.625Q2.326903,16.625,1.850952,16.149Q1.375,15.6731,1.375,15L1.375,8.88333Z" fill-rule="evenodd" fill="#000000" fill-opacity="1"/></g><g><ellipse cx="5.5" cy="5.5" rx="2.875" ry="2.875" fill-opacity="0" stroke-opacity="1" stroke="#0078FD" fill="none" stroke-width="1.25"/></g><g><ellipse cx="12" cy="10" rx="1.375" ry="1.375" fill-opacity="0" stroke-opacity="1" stroke="#000000" fill="none" stroke-width="1.25"/></g><g><path d="M8,16L16,16C16,15.56347,15.93007,15.14327,15.80081,14.75C15.27591,13.15303,13.77261,12,12,12C10.22739,12,8.724085,13.15303,8.199189,14.75C8.0699265,15.14327,8,15.56347,8,16ZM14.45838,14.75L9.54162,14.75Q9.73465,14.37626,10.05546,14.05546Q10.86091,13.25,12,13.25Q13.13909,13.25,13.94454,14.05546Q14.26535,14.37626,14.45838,14.75Z" fill-rule="evenodd" fill="#000000" fill-opacity="1"/></g></g></svg>