<svg xmlns="http://www.w3.org/2000/svg" xmlns:xlink="http://www.w3.org/1999/xlink" fill="none" version="1.1" viewBox="0 0 20 20"><g><g><path d="M5,7.625L6,7.625Q6.06156,7.625,6.12193,7.612991Q6.18231,7.600982,6.23918,7.577425Q6.29605,7.553868,6.34723,7.519668Q6.39841,7.485469,6.44194,7.441942Q6.48547,7.398414,6.51967,7.347231Q6.55387,7.296048,6.57742,7.239177Q6.60098,7.182306,6.61299,7.121931Q6.625,7.0615571,6.625,7Q6.625,6.9384429,6.61299,6.878069Q6.60098,6.817694,6.57742,6.760823Q6.55387,6.703952,6.51967,6.652769Q6.48547,6.601586,6.44194,6.558058Q6.39841,6.514531,6.34723,6.480332Q6.29605,6.446132,6.23918,6.422575Q6.1823,6.399018,6.12193,6.387009Q6.06156,6.375,6,6.375L5,6.375Q3.49848,6.375,2.436738,7.436738Q1.375,8.49848,1.375,10L1.375,15Q1.375,16.501530000000002,2.436738,17.563299999999998Q3.49848,18.625,5,18.625L15,18.625Q16.5015,18.625,17.563299999999998,17.563299999999998Q18.625,16.50152,18.625,15L18.625,10Q18.625,8.49848,17.563299999999998,7.436738Q16.5015,6.375,15,6.375L14,6.375Q13.9384,6.375,13.8781,6.387009Q13.8177,6.399018,13.7608,6.422575Q13.7039,6.446132,13.6528,6.480332Q13.6016,6.514531,13.5581,6.558058Q13.5145,6.601586,13.4803,6.652769Q13.4461,6.703952,13.4226,6.760823Q13.399,6.817694,13.387,6.878069Q13.375,6.9384429,13.375,7Q13.375,7.0615571,13.387,7.121931Q13.399,7.182306,13.4226,7.239177Q13.4461,7.296048,13.4803,7.347231Q13.5145,7.398414,13.5581,7.441942Q13.6016,7.485469,13.6528,7.519668Q13.7039,7.553868,13.7608,7.577425Q13.8177,7.600982,13.8781,7.612991Q13.9384,7.625,14,7.625L15,7.625Q15.9838,7.625,16.6794,8.32062Q17.375,9.01624,17.375,10L17.375,15Q17.375,15.98376,16.6794,16.679380000000002Q15.9838,17.375,15,17.375L5,17.375Q4.01624,17.375,3.32062,16.679380000000002Q2.625,15.98376,2.625,15L2.625,10Q2.625,9.01624,3.32062,8.32062Q4.01624,7.625,5,7.625Z" fill-rule="evenodd" fill-opacity="1"/></g><g><rect x="9.375" y="2.002431869506836" width="1.25" height="12" rx="0.625" fill-opacity="1"/></g><g><path d="M13.097214578094484,12.066938092651368L10.445554578094482,14.718598092651368Q10.357134578094483,14.807018092651367,10.241494578094482,14.854618092651368Q10.125864578094482,14.902208092651367,10.000814578094483,14.901648092651367Q9.875894578094481,14.902108092651368,9.760404578094482,14.854518092651368Q9.644914578094482,14.806928092651367,9.556584578094483,14.718598092651368L6.904927578094482,12.066938092651368Q6.817020178094483,11.979033092651367,6.769444778094482,11.864176092651368Q6.7218694178944824,11.749318092651368,6.721869426294482,11.624998092651367Q6.721869434694482,11.500678092651366,6.769444778094482,11.385820092651366Q6.817020178094483,11.270963092651368,6.904927578094482,11.183056092651368Q6.9484555780944826,11.139528092651368,6.9996385780944825,11.105329092651367Q7.0508215780944825,11.071129392651367,7.107692578094483,11.047572392651368Q7.164564578094483,11.024015492651367,7.224938578094482,11.012006292651368Q7.285313578094483,10.999997045181367,7.3468705780944825,10.999997045181367Q7.408427578094482,10.999997045181367,7.4688015780944825,11.012006292651368Q7.529176578094482,11.024015492651367,7.586047578094482,11.047572392651368Q7.6429195780944825,11.071129392651367,7.6941025780944825,11.105329092651367Q7.745284578094482,11.139528092651368,7.788814578094483,11.183056092651368L10.001074578094482,13.395318092651367L12.213324578094483,11.183055092651367Q12.256854578094483,11.139528092651368,12.308034578094482,11.105328092651368Q12.359224578094484,11.071128992651367,12.416094578094484,11.047572092651366Q12.472964578094484,11.024015092651368,12.533334578094482,11.012005892651366Q12.593714578094483,10.999996661111368,12.655274578094483,10.999996661111368Q12.716824578094482,10.999996661111368,12.777204578094484,11.012005892651366Q12.837574578094483,11.024015092651368,12.894444578094483,11.047572092651366Q12.951324578094482,11.071128992651367,13.002504578094483,11.105328092651368Q13.053684578094483,11.139528092651368,13.097214578094484,11.183055092651367Q13.140744578094482,11.226583092651367,13.174944578094482,11.277766092651367Q13.209144578094483,11.328949092651367,13.232694578094481,11.385820092651366Q13.256254578094483,11.442692092651367,13.268264578094483,11.503066092651368Q13.280274578094483,11.563441092651367,13.280274578094483,11.624998092651367Q13.280274578094483,11.686555092651368,13.268264578094483,11.746930092651366Q13.256254578094483,11.807304092651368,13.232694578094481,11.864176092651368Q13.209144578094483,11.921047092651367,13.174944578094482,11.972230092651367Q13.140744578094482,12.023418092651367,13.097214578094484,12.066938092651368Z" fill-rule="evenodd" fill-opacity="1"/></g></g></svg>
