<svg xmlns="http://www.w3.org/2000/svg" xmlns:xlink="http://www.w3.org/1999/xlink" fill="none" version="1.1" width="18" height="18" viewBox="0 0 18 18"><g><g><path d="M4.49219,4.49219Q6.35939,2.625,9,2.625Q9.06156,2.625,9.121929999999999,2.612991Q9.1823,2.600982,9.239180000000001,2.577425Q9.296050000000001,2.553868,9.34723,2.5196680000000002Q9.39841,2.485469,9.441939999999999,2.441942Q9.48547,2.398414,9.51967,2.347231Q9.55387,2.296048,9.57742,2.239177Q9.60098,2.182306,9.61299,2.121931Q9.625,2.0615571,9.625,2Q9.625,1.9384429,9.61299,1.878069Q9.60098,1.817694,9.57742,1.760823Q9.55387,1.7039520000000001,9.51967,1.652769Q9.48547,1.601586,9.441939999999999,1.558058Q9.39841,1.514531,9.34723,1.480332Q9.296050000000001,1.446132,9.239180000000001,1.4225750000000001Q9.1823,1.3990179999999999,9.121929999999999,1.387009Q9.06156,1.375,9,1.375Q5.84162,1.375,3.60831,3.60831Q1.375,5.84162,1.375,9Q1.375,12.1584,3.60831,14.3917Q5.84162,16.625,9,16.625Q12.1584,16.625,14.3917,14.3917Q16.625,12.1584,16.625,9Q16.625,8.93844,16.613,8.878070000000001Q16.601,8.817689999999999,16.5774,8.760819999999999Q16.5539,8.703949999999999,16.5197,8.65277Q16.485500000000002,8.60158,16.4419,8.558060000000001Q16.398400000000002,8.51453,16.3472,8.48033Q16.296,8.44613,16.2392,8.42257Q16.182299999999998,8.39902,16.1219,8.38701Q16.0616,8.375,16,8.375Q15.9384,8.375,15.8781,8.38701Q15.8177,8.39902,15.7608,8.42257Q15.704,8.44613,15.6528,8.48033Q15.6016,8.51453,15.5581,8.558060000000001Q15.5145,8.60158,15.4803,8.65277Q15.4461,8.703949999999999,15.4226,8.760819999999999Q15.399,8.817689999999999,15.387,8.878070000000001Q15.375,8.93844,15.375,9Q15.375,11.64061,13.5078,13.5078Q11.64061,15.375,9,15.375Q6.35939,15.375,4.49219,13.5078Q2.625,11.64061,2.625,9Q2.625,6.35939,4.49219,4.49219Z" fill-rule="evenodd" fill="#000000" fill-opacity="1"/></g><g><ellipse cx="7" cy="7" rx="1.375" ry="1.375" fill-opacity="0" stroke-opacity="1" stroke="#000000" fill="none" stroke-width="1.25"/></g><g><ellipse cx="10.5" cy="12.5" rx="0.875" ry="0.875" fill-opacity="0" stroke-opacity="1" stroke="#000000" fill="none" stroke-width="1.25"/></g><g><path d="M12,2.375L16.125,2.375L16.125,6.5Q16.125,6.56156,16.113,6.62193Q16.101,6.68231,16.0774,6.73918Q16.0539,6.79605,16.0197,6.84723Q15.98547,6.89841,15.94194,6.941940000000001Q15.89841,6.985469999999999,15.84723,7.01967Q15.79605,7.05387,15.73918,7.07742Q15.68231,7.10098,15.62193,7.11299Q15.56156,7.125,15.5,7.125Q15.43844,7.125,15.37807,7.11299Q15.31769,7.10098,15.26082,7.07742Q15.20395,7.05387,15.15277,7.01967Q15.10159,6.985469999999999,15.05806,6.941940000000001Q15.01453,6.89841,14.98033,6.84723Q14.94613,6.79605,14.92257,6.73918Q14.89902,6.68231,14.88701,6.62193Q14.875,6.56156,14.875,6.5L14.875,4.56534L6.453125,13.4305Q6.364627,13.5236,6.246559,13.5743Q6.12849,13.625,6,13.625Q5.9384429,13.625,5.878069,13.613Q5.817694,13.601,5.760823,13.5774Q5.703952,13.5539,5.652769,13.5197Q5.601586,13.4855,5.558058,13.4419Q5.514531,13.3984,5.480332,13.3472Q5.446132,13.296,5.422575,13.2392Q5.399018,13.1823,5.387009,13.1219Q5.375,13.0616,5.375,13Q5.375,12.87984,5.419557,12.76824Q5.464114,12.65665,5.546875,12.56953L14.04418,3.625L12,3.625Q11.93844,3.625,11.878070000000001,3.612991Q11.817689999999999,3.600982,11.760819999999999,3.577425Q11.703949999999999,3.553868,11.65277,3.5196680000000002Q11.60158,3.485469,11.558060000000001,3.441942Q11.51453,3.398414,11.48033,3.347231Q11.44613,3.296048,11.42257,3.239177Q11.39902,3.182306,11.38701,3.121931Q11.375,3.0615571,11.375,3Q11.375,2.9384429,11.38701,2.878069Q11.39902,2.817694,11.42257,2.760823Q11.44613,2.703952,11.48033,2.652769Q11.51453,2.601586,11.558060000000001,2.558058Q11.60158,2.514531,11.65277,2.4803319999999998Q11.703949999999999,2.446132,11.760819999999999,2.422575Q11.817689999999999,2.399018,11.878070000000001,2.387009Q11.93844,2.375,12,2.375Z" fill-rule="evenodd" fill="#0078FD" fill-opacity="1"/></g></g></svg>