<svg xmlns="http://www.w3.org/2000/svg" xmlns:xlink="http://www.w3.org/1999/xlink" fill="none" version="1.1" width="18" height="18" viewBox="0 0 18 18"><g><g><ellipse cx="11" cy="11" rx="4.375" ry="4.375" fill-opacity="0" stroke-opacity="1" stroke="#000000" fill="none" stroke-width="1.25"/></g><g transform="matrix(1,0.0018980222521349788,-0.0018980222521349788,1,0.006183849521861795,-0.00439473707012894)"><path d="M7.9876696875,4.731359011230468Q8.124209687499999,4.8651090112304685,8.241729687500001,5.0148590112304685Q8.3305896875,5.128079011230469,8.4600296875,5.1910290112304684Q8.5894596875,5.253989011230469,8.7333896875,5.253989011230469Q8.7949496875,5.253989011230469,8.8553196875,5.241979011230469Q8.9156996875,5.229969011230469,8.9725696875,5.206409011230469Q9.0294396875,5.182859011230469,9.0806196875,5.148659011230468Q9.1317996875,5.114459011230469,9.1753296875,5.070929011230469Q9.2188596875,5.027399011230469,9.2530596875,4.9762190112304685Q9.2872596875,4.925039011230469,9.3108096875,4.8681590112304685Q9.3343696875,4.8112890112304685,9.3463796875,4.750919011230469Q9.3583896875,4.690549011230469,9.3583896875,4.628989011230469Q9.3583896875,4.524049011230469,9.3241196875,4.424859011230469Q9.289839687499999,4.3256690112304685,9.2250496875,4.243118011230469Q9.0571796875,4.029227011230469,8.8623896875,3.8384090112304685Q7.6318996875,2.6330490112304688,5.8943496875,2.6330490112304688Q4.1567996874999995,2.6330490112304688,2.9263116875,3.838408011230469Q1.6904296875,5.049049011230469,1.6904296875,6.763889011230469Q1.6904296875,8.478719011230469,2.9263116875,9.689369011230468Q3.3618296875,10.115999011230468,4.4615096874999995,10.571619011230469Q4.5763896875,10.61921901123047,4.7007396875000005,10.61921901123047Q4.7622996875000005,10.61921901123047,4.8226696874999995,10.60720901123047Q4.8830496875,10.59519901123047,4.9399196875,10.571639011230468Q4.9967896875,10.54808901123047,5.0479696875,10.513889011230468Q5.0991596875,10.47968901123047,5.142679687499999,10.436159011230469Q5.1862096875,10.392629011230468,5.2204096875,10.34144901123047Q5.2546096875,10.290269011230468,5.2781696875,10.233389011230468Q5.3017196875,10.176519011230468,5.3137296875,10.116149011230469Q5.3257396875000005,10.055779011230468,5.3257396875000005,9.99421901123047Q5.3257396875000005,9.90151901123047,5.2988296875,9.812799011230469Q5.2719296875,9.724089011230468,5.220429687499999,9.64700901123047Q5.1689296875,9.56992901123047,5.0972696875,9.51111901123047Q5.0256196875,9.452299011230469,4.9399796875,9.41681901123047Q4.0637596875,9.053779011230468,3.8010296875,8.79640901123047Q2.9404296875,7.953379011230469,2.9404296875,6.763889011230469Q2.9404296875,5.574389011230469,3.8010296875,4.731359011230468Q4.6670296874999995,3.8830490112304688,5.8943496875,3.8830490112304688Q7.1216696875,3.8830490112304688,7.9876696875,4.731359011230468Z" fill-rule="evenodd" fill="#0078FD" fill-opacity="1"/></g><g><path d="M12.23212,2.080298Q12.3191,2.045505,12.39206,1.986737Q12.465019999999999,1.92797,12.51754,1.850393Q12.57006,1.7728169999999999,12.597529999999999,1.68325Q12.625,1.5936837,12.625,1.5Q12.625,1.4384429,12.61299,1.378069Q12.60098,1.317694,12.57742,1.260823Q12.55387,1.2039520000000001,12.51967,1.152769Q12.48547,1.101586,12.44194,1.058058Q12.39841,1.014531,12.34723,0.980332Q12.296050000000001,0.946132,12.239180000000001,0.922575Q12.182310000000001,0.899018,12.121929999999999,0.887009Q12.06156,0.875,12,0.875Q11.87964,0.875,11.76788,0.919702L11.76774,0.919758L9.658461,1.7634699999999999Q9.174482,1.957061,9.141511,2.4772790000000002Q9.108539,2.9975,9.5642033,3.2506399999999998L13.69647,5.54635Q13.838049999999999,5.625,14,5.625Q14.06156,5.625,14.121929999999999,5.61299Q14.1823,5.60098,14.239180000000001,5.57742Q14.296050000000001,5.55387,14.34723,5.51967Q14.39841,5.485469999999999,14.441939999999999,5.441940000000001Q14.48547,5.39841,14.51967,5.34723Q14.55387,5.29605,14.57742,5.23918Q14.60098,5.18231,14.61299,5.12193Q14.625,5.06156,14.625,5Q14.625,4.91641,14.60303,4.83575Q14.58106,4.75509,14.53867,4.68305Q14.496279999999999,4.611000000000001,14.436440000000001,4.55262Q14.3766,4.49425,14.30353,4.45365L10.95268,2.59207L12.23198,2.080354L12.23212,2.080298Z" fill-rule="evenodd" fill="#000000" fill-opacity="1"/></g><g transform="matrix(-1,0,0,-1,12,30)"><path d="M7.5088799999999996,15.625L8.5,15.625Q8.56156,15.625,8.621929999999999,15.612991Q8.682310000000001,15.600982,8.739180000000001,15.577425Q8.796050000000001,15.553868,8.84723,15.519668Q8.89841,15.485469,8.94194,15.441942Q8.98547,15.398414,9.01967,15.347231Q9.05387,15.296048,9.07742,15.239177Q9.10098,15.182306,9.11299,15.121931Q9.125,15.0615571,9.125,15Q9.125,14.9384429,9.11299,14.878069Q9.10098,14.817694,9.07742,14.760823Q9.05387,14.703952,9.01967,14.652769Q8.98547,14.601586,8.94194,14.558058Q8.89841,14.514531,8.84723,14.480332Q8.796050000000001,14.446132,8.739180000000001,14.422575Q8.682310000000001,14.399018,8.621929999999999,14.387009Q8.56156,14.375,8.5,14.375L6.482843,14.375Q5.9315955,14.375,5.720642,14.884286Q5.509689,15.393572,5.89948,15.783363L9.55806,19.44194Q9.64597,19.52985,9.760819999999999,19.57743Q9.87568,19.625,10,19.625Q10.06156,19.625,10.121929999999999,19.61299Q10.182310000000001,19.60098,10.239180000000001,19.57742Q10.296050000000001,19.55387,10.34723,19.519669999999998Q10.39841,19.48547,10.441939999999999,19.44194Q10.48547,19.39841,10.51967,19.34723Q10.55387,19.29605,10.57742,19.23918Q10.60098,19.182299999999998,10.61299,19.12193Q10.625,19.06156,10.625,19Q10.625,18.87568,10.57743,18.76082Q10.52985,18.64597,10.441939999999999,18.55806L7.5088799999999996,15.625Z" fill-rule="evenodd" fill="#000000" fill-opacity="1"/></g></g></svg>